<svg width="179" height="120" viewBox="0 0 179 120" fill="none" xmlns="http://www.w3.org/2000/svg">
<circle cx="89.5" cy="14" r="14" fill="#A19C9B"/>
<circle cx="89.5" cy="14" r="14" fill="#C1C8B5"/>
<circle cx="89.5" cy="14" r="12" fill="#A19C9B"/>
<circle cx="89.5" cy="14" r="2" fill="#C1C8B5"/>
<rect width="179" height="72" transform="translate(0 48)" fill="#A19C9B"/>
<path d="M21.216 71.6H23.776V91.632H28V94H21.216V71.6ZM38.2235 76.72V94H35.7915V92.88C34.8742 93.7547 33.8502 94.192 32.7195 94.192C30.7568 94.192 29.7755 93.1573 29.7755 91.088V76.72H32.2075V90.576C32.2075 91.4507 32.6235 91.888 33.4555 91.888C34.2022 91.888 34.9808 91.6 35.7915 91.024V76.72H38.2235ZM43.5358 78.96V94H41.1038V78.96H39.9518V76.72H41.1038V73.84H43.5358V76.72H45.2958V78.96H43.5358ZM46.87 94V71.28H49.302V77.84C50.2193 76.9653 51.2433 76.528 52.374 76.528C54.3367 76.528 55.318 77.5627 55.318 79.632V94H52.886V80.144C52.886 79.2693 52.47 78.832 51.638 78.832C50.8913 78.832 50.1127 79.12 49.302 79.696V94H46.87ZM65.7503 86.256H59.8623V90.384C59.8623 91.408 60.3743 91.92 61.3983 91.92H61.8463C62.8703 91.92 63.3823 91.408 63.3823 90.384V88.4H65.7503V90.288C65.7503 92.8907 64.4489 94.192 61.8463 94.192H61.3343C58.7316 94.192 57.4303 92.8907 57.4303 90.288V80.432C57.4303 77.8293 58.7316 76.528 61.3343 76.528H61.8463C64.4489 76.528 65.7503 77.8293 65.7503 80.432V86.256ZM59.8623 80.336V83.952H63.3183V80.336C63.3183 79.312 62.8063 78.8 61.7823 78.8H61.3983C60.3743 78.8 59.8623 79.312 59.8623 80.336ZM67.87 94V76.72H70.302V78.544C70.686 77.84 71.0807 77.3387 71.486 77.04C71.9127 76.72 72.446 76.56 73.086 76.56V79.312C71.934 79.3973 71.006 79.76 70.302 80.4V94H67.87ZM74.0865 91.152V87.984C74.0865 86.9387 74.2785 86.1493 74.6625 85.616C75.0465 85.0827 75.7078 84.656 76.6465 84.336L79.9105 83.216V80.336C79.9105 79.2907 79.3985 78.768 78.3745 78.768H78.1825C77.1585 78.768 76.6465 79.2907 76.6465 80.336V82.48H74.2785V80.432C74.2785 77.8293 75.5798 76.528 78.1825 76.528H78.4385C81.0412 76.528 82.3425 77.8293 82.3425 80.432V94H79.9105V92.912C79.0145 93.7653 78.0225 94.192 76.9345 94.192C75.0358 94.192 74.0865 93.1787 74.0865 91.152ZM77.7025 91.888C78.3852 91.888 79.1212 91.6213 79.9105 91.088V85.456L77.7025 86.224C77.2545 86.3947 76.9452 86.6187 76.7745 86.896C76.6038 87.152 76.5185 87.5253 76.5185 88.016V90.64C76.5185 91.472 76.9132 91.888 77.7025 91.888ZM84.5263 94V76.72H86.9583V77.84C87.8756 76.9653 88.8996 76.528 90.0303 76.528C91.9929 76.528 92.9743 77.5627 92.9743 79.632V94H90.5423V80.144C90.5423 79.2693 90.1263 78.832 89.2943 78.832C88.5476 78.832 87.7689 79.12 86.9583 79.696V94H84.5263ZM105.714 85.392H108.21V90.032C108.21 92.8053 106.824 94.192 104.05 94.192H103.218C100.445 94.192 99.0583 92.8053 99.0583 90.032V75.568C99.0583 72.7947 100.445 71.408 103.218 71.408H104.05C106.781 71.408 108.146 72.7733 108.146 75.504V79.536H105.65V75.44C105.65 74.3093 105.085 73.744 103.954 73.744H103.314C102.184 73.744 101.618 74.3093 101.618 75.44V90.16C101.618 91.2907 102.184 91.856 103.314 91.856H104.018C105.149 91.856 105.714 91.2907 105.714 90.16V85.392ZM110.339 94V71.28H112.771V77.84C113.688 76.9653 114.712 76.528 115.843 76.528C117.805 76.528 118.787 77.5627 118.787 79.632V94H116.355V80.144C116.355 79.2693 115.939 78.832 115.107 78.832C114.36 78.832 113.581 79.12 112.771 79.696V94H110.339ZM129.411 76.72V94H126.979V92.88C126.062 93.7547 125.038 94.192 123.907 94.192C121.944 94.192 120.963 93.1573 120.963 91.088V76.72H123.395V90.576C123.395 91.4507 123.811 91.888 124.643 91.888C125.39 91.888 126.168 91.6 126.979 91.024V76.72H129.411ZM131.651 94V76.72H134.083V78.544C134.467 77.84 134.862 77.3387 135.267 77.04C135.694 76.72 136.227 76.56 136.867 76.56V79.312C135.715 79.3973 134.787 79.76 134.083 80.4V94H131.651ZM144.289 83.184V80.336C144.289 79.312 143.777 78.8 142.753 78.8H142.305C141.281 78.8 140.769 79.312 140.769 80.336V90.384C140.769 91.408 141.281 91.92 142.305 91.92H142.785C143.809 91.92 144.321 91.408 144.321 90.384V86.96H146.72V90.288C146.72 92.8907 145.419 94.192 142.817 94.192H142.241C139.638 94.192 138.337 92.8907 138.337 90.288V80.432C138.337 77.8293 139.638 76.528 142.241 76.528H142.849C145.409 76.528 146.689 77.808 146.689 80.368V83.184H144.289ZM148.839 94V71.28H151.271V77.84C152.188 76.9653 153.212 76.528 154.343 76.528C156.305 76.528 157.287 77.5627 157.287 79.632V94H154.855V80.144C154.855 79.2693 154.439 78.832 153.607 78.832C152.86 78.832 152.081 79.12 151.271 79.696V94H148.839Z" fill="white"/>
<path d="M89 56L104 56L89 41L74 56L89 56Z" fill="#A19C9B"/>
</svg>
