<svg width="146" height="120" viewBox="0 0 146 120" fill="none" xmlns="http://www.w3.org/2000/svg">
<rect width="146" height="72" fill="#A19C9B"/>
<path d="M26.24 46H23.68V25.968H20.32V23.6H29.6V25.968H26.24V46ZM39.2503 38.256H33.3623V42.384C33.3623 43.408 33.8743 43.92 34.8983 43.92H35.3463C36.3703 43.92 36.8823 43.408 36.8823 42.384V40.4H39.2503V42.288C39.2503 44.8907 37.9489 46.192 35.3463 46.192H34.8343C32.2316 46.192 30.9303 44.8907 30.9303 42.288V32.432C30.9303 29.8293 32.2316 28.528 34.8343 28.528H35.3463C37.9489 28.528 39.2503 29.8293 39.2503 32.432V38.256ZM33.3623 32.336V35.952H36.8183V32.336C36.8183 31.312 36.3063 30.8 35.2823 30.8H34.8983C33.8743 30.8 33.3623 31.312 33.3623 32.336ZM41.37 46V28.72H43.802V29.84C44.7193 28.9653 45.7433 28.528 46.874 28.528C48.8367 28.528 49.818 29.5627 49.818 31.632V46H47.386V32.144C47.386 31.2693 46.97 30.832 46.138 30.832C45.3913 30.832 44.6127 31.12 43.802 31.696V46H41.37ZM52.0263 46V28.72H54.4583V29.84C55.3756 28.9653 56.3996 28.528 57.5303 28.528C59.4929 28.528 60.4743 29.5627 60.4743 31.632V46H58.0423V32.144C58.0423 31.2693 57.6263 30.832 56.7943 30.832C56.0476 30.832 55.2689 31.12 54.4583 31.696V46H52.0263ZM62.7145 26.96V24.24H65.2745V26.96H62.7145ZM62.7785 46V28.72H65.2105V46H62.7785ZM73.2215 34.8V32.208C73.2215 31.2267 72.7308 30.736 71.7495 30.736H71.3335C70.3522 30.736 69.8615 31.2267 69.8615 32.208V33.712C69.8615 34.4373 70.1602 34.9813 70.7575 35.344L73.6375 37.136C74.3628 37.6053 74.8748 38.0853 75.1735 38.576C75.4935 39.0667 75.6535 39.728 75.6535 40.56V42.288C75.6535 44.8907 74.3522 46.192 71.7495 46.192H71.2695C68.7095 46.192 67.4295 44.912 67.4295 42.352V39.792H69.8295V42.512C69.8295 43.4933 70.3202 43.984 71.3015 43.984H71.7815C72.7628 43.984 73.2535 43.4933 73.2535 42.512V40.88C73.2535 40.176 72.9548 39.632 72.3575 39.248L69.4775 37.456C68.7522 36.9867 68.2295 36.5067 67.9095 36.016C67.6108 35.5253 67.4615 34.864 67.4615 34.032V32.432C67.4615 29.8293 68.7628 28.528 71.3655 28.528H71.7815C74.3415 28.528 75.6215 29.808 75.6215 32.368V34.8H73.2215ZM87.4448 35.184V32.336C87.4448 31.312 86.9328 30.8 85.9088 30.8H85.4608C84.4368 30.8 83.9248 31.312 83.9248 32.336V42.384C83.9248 43.408 84.4368 43.92 85.4608 43.92H85.9408C86.9648 43.92 87.4768 43.408 87.4768 42.384V38.96H89.8767V42.288C89.8767 44.8907 88.5754 46.192 85.9728 46.192H85.3968C82.7941 46.192 81.4928 44.8907 81.4928 42.288V32.432C81.4928 29.8293 82.7941 28.528 85.3968 28.528H86.0048C88.5648 28.528 89.8448 29.808 89.8448 32.368V35.184H87.4448ZM96.443 30.8H95.867C94.843 30.8 94.331 31.312 94.331 32.336V42.384C94.331 43.408 94.843 43.92 95.867 43.92H96.443C97.467 43.92 97.979 43.408 97.979 42.384V32.336C97.979 31.312 97.467 30.8 96.443 30.8ZM96.507 46.192H95.803C93.2003 46.192 91.899 44.8907 91.899 42.288V32.432C91.899 29.8293 93.2003 28.528 95.803 28.528H96.507C99.1097 28.528 100.411 29.8293 100.411 32.432V42.288C100.411 44.8907 99.1097 46.192 96.507 46.192ZM110.974 28.72V46H108.542V44.88C107.624 45.7547 106.6 46.192 105.47 46.192C103.507 46.192 102.526 45.1573 102.526 43.088V28.72H104.958V42.576C104.958 43.4507 105.374 43.888 106.206 43.888C106.952 43.888 107.731 43.6 108.542 43.024V28.72H110.974ZM113.214 46V28.72H115.646V30.544C116.03 29.84 116.424 29.3387 116.83 29.04C117.256 28.72 117.79 28.56 118.43 28.56V31.312C117.278 31.3973 116.35 31.76 115.646 32.4V46H113.214ZM123.067 30.96V46H120.635V30.96H119.483V28.72H120.635V25.84H123.067V28.72H124.827V30.96H123.067Z" fill="white"/>
<path d="M72 72L57 72L72 87L87 72L72 72Z" fill="#A19C9B"/>
<circle cx="73" cy="106" r="14" fill="#A19C9B"/>
<circle cx="73" cy="106" r="14" fill="#C1C8B5"/>
<circle cx="73" cy="106" r="12" fill="#A19C9B"/>
<circle cx="73" cy="106" r="2" fill="#C1C8B5"/>
</svg>
