<svg width="156" height="120" viewBox="0 0 156 120" fill="none" xmlns="http://www.w3.org/2000/svg">
<circle cx="78" cy="14" r="14" fill="#A19C9B"/>
<circle cx="78" cy="14" r="14" fill="#C1C8B5"/>
<circle cx="78" cy="14" r="12" fill="#A19C9B"/>
<circle cx="78" cy="14" r="2" fill="#C1C8B5"/>
<rect width="156" height="72" transform="translate(0 48)" fill="#A19C9B"/>
<path d="M21.216 94V71.6H25.44C28.7467 71.6 30.4 73.2533 30.4 76.56V89.04C30.4 92.3467 28.7467 94 25.44 94H21.216ZM23.776 73.936V91.664H25.312C26.9973 91.664 27.84 90.8 27.84 89.072V76.528C27.84 74.8 26.9973 73.936 25.312 73.936H23.776ZM32.7145 74.96V72.24H35.2745V74.96H32.7145ZM32.7785 94V76.72H35.2105V94H32.7785ZM43.2215 82.8V80.208C43.2215 79.2267 42.7308 78.736 41.7495 78.736H41.3335C40.3522 78.736 39.8615 79.2267 39.8615 80.208V81.712C39.8615 82.4373 40.1602 82.9813 40.7575 83.344L43.6375 85.136C44.3628 85.6053 44.8748 86.0853 45.1735 86.576C45.4935 87.0667 45.6535 87.728 45.6535 88.56V90.288C45.6535 92.8907 44.3522 94.192 41.7495 94.192H41.2695C38.7095 94.192 37.4295 92.912 37.4295 90.352V87.792H39.8295V90.512C39.8295 91.4933 40.3202 91.984 41.3015 91.984H41.7815C42.7628 91.984 43.2535 91.4933 43.2535 90.512V88.88C43.2535 88.176 42.9548 87.632 42.3575 87.248L39.4775 85.456C38.7522 84.9867 38.2295 84.5067 37.9095 84.016C37.6108 83.5253 37.4615 82.864 37.4615 82.032V80.432C37.4615 77.8293 38.7628 76.528 41.3655 76.528H41.7815C44.3415 76.528 45.6215 77.808 45.6215 80.368V82.8H43.2215ZM53.601 83.184V80.336C53.601 79.312 53.089 78.8 52.065 78.8H51.617C50.593 78.8 50.081 79.312 50.081 80.336V90.384C50.081 91.408 50.593 91.92 51.617 91.92H52.097C53.121 91.92 53.633 91.408 53.633 90.384V86.96H56.033V90.288C56.033 92.8907 54.7317 94.192 52.129 94.192H51.553C48.9503 94.192 47.649 92.8907 47.649 90.288V80.432C47.649 77.8293 48.9503 76.528 51.553 76.528H52.161C54.721 76.528 56.001 77.808 56.001 80.368V83.184H53.601ZM68.811 84.432H66.731V82.096H71.307V90.032C71.307 92.8053 69.9203 94.192 67.147 94.192H66.187C63.4137 94.192 62.027 92.8053 62.027 90.032V75.568C62.027 72.7947 63.4137 71.408 66.187 71.408H67.147C69.8777 71.408 71.243 72.7733 71.243 75.504V78.576H68.747V75.44C68.747 74.3093 68.1817 73.744 67.051 73.744H66.283C65.1523 73.744 64.587 74.3093 64.587 75.44V90.16C64.587 91.2907 65.1523 91.856 66.283 91.856H67.115C68.2457 91.856 68.811 91.2907 68.811 90.16V84.432ZM77.9743 78.8H77.3983C76.3743 78.8 75.8623 79.312 75.8623 80.336V90.384C75.8623 91.408 76.3743 91.92 77.3983 91.92H77.9743C78.9983 91.92 79.5103 91.408 79.5103 90.384V80.336C79.5103 79.312 78.9983 78.8 77.9743 78.8ZM78.0383 94.192H77.3343C74.7316 94.192 73.4303 92.8907 73.4303 90.288V80.432C73.4303 77.8293 74.7316 76.528 77.3343 76.528H78.0383C80.6409 76.528 81.9423 77.8293 81.9423 80.432V90.288C81.9423 92.8907 80.6409 94.192 78.0383 94.192ZM84.1848 94V71.28H86.6168V94H84.1848ZM89.5078 76.72V74.768C89.5078 72.4427 90.6704 71.28 92.9958 71.28H93.9878V73.52H93.0918C92.3238 73.52 91.9398 73.904 91.9398 74.672V76.72H93.8918V78.96H91.9398V94H89.5078V78.96H88.5158V76.72H89.5078ZM99.0888 97.52V76.72H101.521V77.84C102.353 76.9653 103.345 76.528 104.497 76.528C105.521 76.528 106.289 76.8373 106.801 77.456C107.334 78.0747 107.601 78.9067 107.601 79.952V90.768C107.601 91.8133 107.334 92.6453 106.801 93.264C106.289 93.8827 105.521 94.192 104.497 94.192C103.345 94.192 102.353 93.776 101.521 92.944V97.52H99.0888ZM101.521 79.728V90.992C102.225 91.5893 102.971 91.888 103.761 91.888C104.699 91.888 105.169 91.4187 105.169 90.48V80.24C105.169 79.3013 104.699 78.832 103.761 78.832C102.971 78.832 102.225 79.1307 101.521 79.728ZM109.68 91.152V87.984C109.68 86.9387 109.872 86.1493 110.256 85.616C110.64 85.0827 111.302 84.656 112.24 84.336L115.504 83.216V80.336C115.504 79.2907 114.992 78.768 113.968 78.768H113.776C112.752 78.768 112.24 79.2907 112.24 80.336V82.48H109.872V80.432C109.872 77.8293 111.174 76.528 113.776 76.528H114.032C116.635 76.528 117.936 77.8293 117.936 80.432V94H115.504V92.912C114.608 93.7653 113.616 94.192 112.528 94.192C110.63 94.192 109.68 93.1787 109.68 91.152ZM113.296 91.888C113.979 91.888 114.715 91.6213 115.504 91.088V85.456L113.296 86.224C112.848 86.3947 112.539 86.6187 112.368 86.896C112.198 87.152 112.112 87.5253 112.112 88.016V90.64C112.112 91.472 112.507 91.888 113.296 91.888ZM120.12 94V76.72H122.552V78.544C122.936 77.84 123.331 77.3387 123.736 77.04C124.163 76.72 124.696 76.56 125.336 76.56V79.312C124.184 79.3973 123.256 79.76 122.552 80.4V94H120.12ZM133.109 76.72H135.701L131.669 85.168L135.573 94H132.917L129.333 85.424V94H126.901V71.28H129.333V85.104L133.109 76.72Z" fill="white"/>
<path d="M77 56L92 56L77 41L62 56L77 56Z" fill="#A19C9B"/>
</svg>
