<svg width="150" height="120" viewBox="0 0 150 120" fill="none" xmlns="http://www.w3.org/2000/svg">
<rect width="150" height="72" fill="#A19C9B"/>
<path d="M30.784 46H27.968L23.776 34.992V46H21.216V23.6H23.776V34.448L28.192 23.6H30.912L26.304 34.608L30.784 46ZM32.2145 26.96V24.24H34.7745V26.96H32.2145ZM32.2785 46V28.72H34.7105V46H32.2785ZM37.0575 46V28.72H39.4895V29.84C40.4068 28.9653 41.4308 28.528 42.5615 28.528C44.5242 28.528 45.5055 29.5627 45.5055 31.632V46H43.0735V32.144C43.0735 31.2693 42.6575 30.832 41.8255 30.832C41.0788 30.832 40.3002 31.12 39.4895 31.696V46H37.0575ZM56.1618 23.28V46H53.7298V44.88C52.8978 45.7547 51.9058 46.192 50.7538 46.192C49.7298 46.192 48.9511 45.8827 48.4178 45.264C47.9058 44.6453 47.6497 43.8133 47.6497 42.768V31.952C47.6497 30.9067 47.9058 30.0747 48.4178 29.456C48.9511 28.8373 49.7298 28.528 50.7538 28.528C51.9058 28.528 52.8978 28.944 53.7298 29.776V23.28H56.1618ZM53.7298 42.992V31.728C53.0258 31.1307 52.2791 30.832 51.4898 30.832C50.5511 30.832 50.0818 31.3013 50.0818 32.24V42.48C50.0818 43.4187 50.5511 43.888 51.4898 43.888C52.2791 43.888 53.0258 43.5893 53.7298 42.992ZM66.6253 38.256H60.7373V42.384C60.7373 43.408 61.2493 43.92 62.2733 43.92H62.7213C63.7453 43.92 64.2573 43.408 64.2573 42.384V40.4H66.6253V42.288C66.6253 44.8907 65.3239 46.192 62.7213 46.192H62.2093C59.6066 46.192 58.3053 44.8907 58.3053 42.288V32.432C58.3053 29.8293 59.6066 28.528 62.2093 28.528H62.7213C65.3239 28.528 66.6253 29.8293 66.6253 32.432V38.256ZM60.7373 32.336V35.952H64.1933V32.336C64.1933 31.312 63.6813 30.8 62.6573 30.8H62.2733C61.2493 30.8 60.7373 31.312 60.7373 32.336ZM68.745 46V28.72H71.177V30.544C71.561 29.84 71.9557 29.3387 72.361 29.04C72.7877 28.72 73.321 28.56 73.961 28.56V31.312C72.809 31.3973 71.881 31.76 71.177 32.4V46H68.745ZM83.9743 28.72V45.904C83.9743 48.4 82.7156 49.648 80.1983 49.648H78.9183C76.6569 49.648 75.5263 48.528 75.5263 46.288V45.36H77.7983V46.192C77.7983 47.088 78.2143 47.536 79.0463 47.536H80.2943C81.1263 47.536 81.5423 47.088 81.5423 46.192V43.056C80.6889 43.8453 79.6969 44.24 78.5663 44.24C77.5423 44.24 76.7636 43.9307 76.2303 43.312C75.7183 42.6933 75.4622 41.8613 75.4622 40.816V31.952C75.4622 30.9067 75.7183 30.0747 76.2303 29.456C76.7636 28.8373 77.5423 28.528 78.5663 28.528C79.7183 28.528 80.7103 28.944 81.5423 29.776V28.72H83.9743ZM81.5423 41.104V31.728C80.8383 31.1307 80.0916 30.832 79.3023 30.832C78.3636 30.832 77.8943 31.3013 77.8943 32.24V40.528C77.8943 41.4667 78.3636 41.936 79.3023 41.936C80.0703 41.936 80.8169 41.6587 81.5423 41.104ZM86.1178 43.152V39.984C86.1178 38.9387 86.3098 38.1493 86.6938 37.616C87.0778 37.0827 87.7391 36.656 88.6778 36.336L91.9418 35.216V32.336C91.9418 31.2907 91.4298 30.768 90.4058 30.768H90.2138C89.1898 30.768 88.6778 31.2907 88.6778 32.336V34.48H86.3098V32.432C86.3098 29.8293 87.6111 28.528 90.2138 28.528H90.4698C93.0724 28.528 94.3738 29.8293 94.3738 32.432V46H91.9418V44.912C91.0458 45.7653 90.0538 46.192 88.9658 46.192C87.0671 46.192 86.1178 45.1787 86.1178 43.152ZM89.7338 43.888C90.4164 43.888 91.1524 43.6213 91.9418 43.088V37.456L89.7338 38.224C89.2858 38.3947 88.9764 38.6187 88.8058 38.896C88.6351 39.152 88.5498 39.5253 88.5498 40.016V42.64C88.5498 43.472 88.9444 43.888 89.7338 43.888ZM96.5575 46V28.72H98.9895V30.544C99.3735 29.84 99.7682 29.3387 100.174 29.04C100.6 28.72 101.134 28.56 101.774 28.56V31.312C100.622 31.3973 99.6935 31.76 98.9895 32.4V46H96.5575ZM106.411 30.96V46H103.979V30.96H102.827V28.72H103.979V25.84H106.411V28.72H108.171V30.96H106.411ZM117.969 38.256H112.081V42.384C112.081 43.408 112.593 43.92 113.617 43.92H114.065C115.089 43.92 115.601 43.408 115.601 42.384V40.4H117.969V42.288C117.969 44.8907 116.668 46.192 114.065 46.192H113.553C110.95 46.192 109.649 44.8907 109.649 42.288V32.432C109.649 29.8293 110.95 28.528 113.553 28.528H114.065C116.668 28.528 117.969 29.8293 117.969 32.432V38.256ZM112.081 32.336V35.952H115.537V32.336C115.537 31.312 115.025 30.8 114.001 30.8H113.617C112.593 30.8 112.081 31.312 112.081 32.336ZM120.089 46V28.72H122.521V29.84C123.438 28.9653 124.462 28.528 125.593 28.528C127.555 28.528 128.537 29.5627 128.537 31.632V46H126.105V32.144C126.105 31.2693 125.689 30.832 124.857 30.832C124.11 30.832 123.331 31.12 122.521 31.696V46H120.089Z" fill="white"/>
<path d="M74 72L59 72L74 87L89 72L74 72Z" fill="#A19C9B"/>
<circle cx="75" cy="106" r="14" fill="#A19C9B"/>
<circle cx="75" cy="106" r="14" fill="#C1C8B5"/>
<circle cx="75" cy="106" r="12" fill="#A19C9B"/>
<circle cx="75" cy="106" r="2" fill="#C1C8B5"/>
</svg>
