<svg width="307" height="88" viewBox="0 0 307 88" fill="none" xmlns="http://www.w3.org/2000/svg">
<circle cx="28" cy="44" r="28" fill="#D47E27"/>
<circle cx="28" cy="44" r="28" fill="#C1C8B5"/>
<circle cx="28" cy="44" r="24" fill="#D47E27"/>
<circle cx="28" cy="44" r="4" fill="#C1C8B5"/>
<rect width="231" height="88" transform="translate(76)" fill="#D47E27"/>
<path d="M107.904 40.912C109.12 41.808 109.952 42.72 110.4 43.648C110.88 44.544 111.12 45.712 111.12 47.152V52.048C111.12 56.208 109.04 58.288 104.88 58.288H103.824C99.728 58.288 97.68 56.24 97.68 52.144V45.088H101.424V52.288C101.424 53.984 102.272 54.832 103.968 54.832H104.736C106.432 54.832 107.28 53.984 107.28 52.288V47.248C107.28 46.448 107.152 45.824 106.896 45.376C106.64 44.928 106.208 44.48 105.6 44.032L100.896 40.624C99.68 39.76 98.832 38.864 98.352 37.936C97.904 36.976 97.68 35.792 97.68 34.384V30.352C97.68 26.192 99.76 24.112 103.92 24.112H104.88C108.976 24.112 111.024 26.16 111.024 30.256V36.304H107.28V30.112C107.28 28.416 106.432 27.568 104.736 27.568H104.064C102.368 27.568 101.52 28.416 101.52 30.112V34.336C101.52 35.136 101.648 35.76 101.904 36.208C102.192 36.656 102.64 37.104 103.248 37.552L107.904 40.912ZM118.976 35.44V58H115.328V35.44H113.6V32.08H115.328V27.76H118.976V32.08H121.616V35.44H118.976ZM130.649 35.2H129.785C128.249 35.2 127.481 35.968 127.481 37.504V52.576C127.481 54.112 128.249 54.88 129.785 54.88H130.649C132.185 54.88 132.953 54.112 132.953 52.576V37.504C132.953 35.968 132.185 35.2 130.649 35.2ZM130.745 58.288H129.689C125.785 58.288 123.833 56.336 123.833 52.432V37.648C123.833 33.744 125.785 31.792 129.689 31.792H130.745C134.649 31.792 136.601 33.744 136.601 37.648V52.432C136.601 56.336 134.649 58.288 130.745 58.288ZM149.133 32.08H153.021L146.973 44.752L152.829 58H148.845L143.469 45.136V58H139.821V23.92H143.469V44.656L149.133 32.08ZM154.914 58V23.92H158.562V33.76C159.938 32.448 161.474 31.792 163.17 31.792C166.114 31.792 167.586 33.344 167.586 36.448V58H163.938V37.216C163.938 35.904 163.314 35.248 162.066 35.248C160.946 35.248 159.778 35.68 158.562 36.544V58H154.914ZM177.571 35.2H176.707C175.171 35.2 174.403 35.968 174.403 37.504V52.576C174.403 54.112 175.171 54.88 176.707 54.88H177.571C179.107 54.88 179.875 54.112 179.875 52.576V37.504C179.875 35.968 179.107 35.2 177.571 35.2ZM177.667 58.288H176.611C172.707 58.288 170.755 56.336 170.755 52.432V37.648C170.755 33.744 172.707 31.792 176.611 31.792H177.667C181.571 31.792 183.523 33.744 183.523 37.648V52.432C183.523 56.336 181.571 58.288 177.667 58.288ZM186.887 58V23.92H190.535V58H186.887ZM206.439 36.544V58H202.791V37.12C202.791 35.872 202.215 35.248 201.063 35.248C200.039 35.248 198.919 35.68 197.703 36.544V58H194.055V32.08H197.703V33.76C199.079 32.448 200.567 31.792 202.167 31.792C203.991 31.792 205.255 32.496 205.959 33.904C207.623 32.496 209.271 31.792 210.903 31.792C212.311 31.792 213.367 32.192 214.071 32.992C214.807 33.792 215.175 34.912 215.175 36.352V58H211.527V37.12C211.527 35.872 210.951 35.248 209.799 35.248C208.775 35.248 207.655 35.68 206.439 36.544ZM218.333 53.728V48.976C218.333 47.408 218.621 46.224 219.197 45.424C219.773 44.624 220.765 43.984 222.173 43.504L227.069 41.824V37.504C227.069 35.936 226.301 35.152 224.765 35.152H224.477C222.941 35.152 222.173 35.936 222.173 37.504V40.72H218.621V37.648C218.621 33.744 220.573 31.792 224.477 31.792H224.861C228.765 31.792 230.717 33.744 230.717 37.648V58H227.069V56.368C225.725 57.648 224.237 58.288 222.605 58.288C219.757 58.288 218.333 56.768 218.333 53.728ZM223.757 54.832C224.781 54.832 225.885 54.432 227.069 53.632V45.184L223.757 46.336C223.085 46.592 222.621 46.928 222.365 47.344C222.109 47.728 221.981 48.288 221.981 49.024V52.96C221.981 54.208 222.573 54.832 223.757 54.832ZM242.489 41.2V37.312C242.489 35.84 241.753 35.104 240.281 35.104H239.657C238.185 35.104 237.449 35.84 237.449 37.312V39.568C237.449 40.656 237.897 41.472 238.793 42.016L243.113 44.704C244.201 45.408 244.969 46.128 245.417 46.864C245.897 47.6 246.137 48.592 246.137 49.84V52.432C246.137 56.336 244.185 58.288 240.281 58.288H239.561C235.721 58.288 233.801 56.368 233.801 52.528V48.688H237.401V52.768C237.401 54.24 238.137 54.976 239.609 54.976H240.329C241.801 54.976 242.537 54.24 242.537 52.768V50.32C242.537 49.264 242.089 48.448 241.193 47.872L236.873 45.184C235.785 44.48 235.001 43.76 234.521 43.024C234.073 42.288 233.849 41.296 233.849 40.048V37.648C233.849 33.744 235.801 31.792 239.705 31.792H240.329C244.169 31.792 246.089 33.712 246.089 37.552V41.2H242.489ZM257.391 45.712L262.815 38.896C263.807 37.648 264.303 36.432 264.303 35.248V30.16C264.303 28.464 263.487 27.616 261.855 27.616H261.087C259.455 27.616 258.639 28.464 258.639 30.16V36.496H254.895V30.352C254.895 26.192 256.943 24.112 261.039 24.112H261.999C266.095 24.112 268.143 26.192 268.143 30.352V34.672C268.143 36.976 267.311 39.152 265.647 41.2L260.223 48.016C259.583 48.816 259.151 49.504 258.927 50.08C258.735 50.656 258.639 51.456 258.639 52.48V54.448H268.143V58H254.799V52.24C254.799 51.024 254.975 49.936 255.327 48.976C255.711 48.016 256.399 46.928 257.391 45.712ZM275.098 30.16V39.136C276.41 38.432 277.738 38.08 279.082 38.08H279.322C281.018 38.08 282.346 38.592 283.306 39.616C284.266 40.64 284.746 41.984 284.746 43.648V52.048C284.746 56.208 282.666 58.288 278.506 58.288H277.546C273.386 58.288 271.306 56.208 271.306 52.048V30.352C271.306 26.192 273.386 24.112 277.546 24.112H278.554C280.634 24.112 282.154 24.608 283.114 25.6C284.106 26.56 284.602 28.08 284.602 30.16V34.816H280.906V30.16C280.906 28.464 280.09 27.616 278.458 27.616H277.546C275.914 27.616 275.098 28.464 275.098 30.16ZM275.098 42.352V52.24C275.098 53.936 275.914 54.784 277.546 54.784H278.554C280.186 54.784 281.002 53.936 281.002 52.24V44.368C281.002 42.544 280.138 41.632 278.41 41.632C277.162 41.632 276.058 41.872 275.098 42.352Z" fill="white"/>
<path d="M76 44V29L61 44L76 59V44Z" fill="#D47E27"/>
</svg>
