<svg width="126" height="120" viewBox="0 0 126 120" fill="none" xmlns="http://www.w3.org/2000/svg">
<rect width="126" height="72" fill="#A19C9B"/>
<path d="M23.776 37.584V46H21.216V23.6H25.632C28.4053 23.6 29.792 24.9867 29.792 27.76V33.424C29.792 36.1973 28.4053 37.584 25.632 37.584H23.776ZM27.232 27.632C27.232 26.5013 26.6667 25.936 25.536 25.936H23.776V35.248H25.536C26.6667 35.248 27.232 34.6827 27.232 33.552V27.632ZM31.7763 46V23.28H34.2083V29.84C35.1256 28.9653 36.1496 28.528 37.2803 28.528C39.2429 28.528 40.2243 29.5627 40.2243 31.632V46H37.7923V32.144C37.7923 31.2693 37.3763 30.832 36.5443 30.832C35.7976 30.832 35.0189 31.12 34.2083 31.696V46H31.7763ZM42.3365 43.152V39.984C42.3365 38.9387 42.5285 38.1493 42.9125 37.616C43.2965 37.0827 43.9578 36.656 44.8965 36.336L48.1605 35.216V32.336C48.1605 31.2907 47.6485 30.768 46.6245 30.768H46.4325C45.4085 30.768 44.8965 31.2907 44.8965 32.336V34.48H42.5285V32.432C42.5285 29.8293 43.8298 28.528 46.4325 28.528H46.6885C49.2912 28.528 50.5925 29.8293 50.5925 32.432V46H48.1605V44.912C47.2645 45.7653 46.2725 46.192 45.1845 46.192C43.2858 46.192 42.3365 45.1787 42.3365 43.152ZM45.9525 43.888C46.6352 43.888 47.3712 43.6213 48.1605 43.088V37.456L45.9525 38.224C45.5045 38.3947 45.1952 38.6187 45.0245 38.896C44.8538 39.152 44.7685 39.5253 44.7685 40.016V42.64C44.7685 43.472 45.1632 43.888 45.9525 43.888ZM52.7763 46V28.72H55.2083V30.544C55.5923 29.84 55.9869 29.3387 56.3923 29.04C56.8189 28.72 57.3523 28.56 57.9923 28.56V31.312C56.8403 31.3973 55.9123 31.76 55.2083 32.4V46H52.7763ZM67.8135 31.696V46H65.3815V32.08C65.3815 31.248 64.9975 30.832 64.2295 30.832C63.5468 30.832 62.8002 31.12 61.9895 31.696V46H59.5575V28.72H61.9895V29.84C62.9068 28.9653 63.8988 28.528 64.9655 28.528C66.1815 28.528 67.0242 28.9973 67.4935 29.936C68.6028 28.9973 69.7015 28.528 70.7895 28.528C71.7282 28.528 72.4322 28.7947 72.9015 29.328C73.3922 29.8613 73.6375 30.608 73.6375 31.568V46H71.2055V32.08C71.2055 31.248 70.8215 30.832 70.0535 30.832C69.3708 30.832 68.6242 31.12 67.8135 31.696ZM75.7428 43.152V39.984C75.7428 38.9387 75.9348 38.1493 76.3188 37.616C76.7028 37.0827 77.3641 36.656 78.3028 36.336L81.5668 35.216V32.336C81.5668 31.2907 81.0548 30.768 80.0308 30.768H79.8388C78.8148 30.768 78.3028 31.2907 78.3028 32.336V34.48H75.9348V32.432C75.9348 29.8293 77.2361 28.528 79.8388 28.528H80.0948C82.6974 28.528 83.9988 29.8293 83.9988 32.432V46H81.5668V44.912C80.6708 45.7653 79.6788 46.192 78.5908 46.192C76.6921 46.192 75.7428 45.1787 75.7428 43.152ZM79.3588 43.888C80.0414 43.888 80.7774 43.6213 81.5668 43.088V37.456L79.3588 38.224C78.9108 38.3947 78.6014 38.6187 78.4308 38.896C78.2601 39.152 78.1748 39.5253 78.1748 40.016V42.64C78.1748 43.472 78.5694 43.888 79.3588 43.888ZM92.0385 35.184V32.336C92.0385 31.312 91.5265 30.8 90.5025 30.8H90.0545C89.0305 30.8 88.5185 31.312 88.5185 32.336V42.384C88.5185 43.408 89.0305 43.92 90.0545 43.92H90.5345C91.5585 43.92 92.0705 43.408 92.0705 42.384V38.96H94.4705V42.288C94.4705 44.8907 93.1692 46.192 90.5665 46.192H89.9905C87.3878 46.192 86.0865 44.8907 86.0865 42.288V32.432C86.0865 29.8293 87.3878 28.528 89.9905 28.528H90.5985C93.1585 28.528 94.4385 29.808 94.4385 32.368V35.184H92.0385ZM100.628 49.52H98.2283L99.0283 45.776L95.6683 28.72H98.1323L100.244 41.104L102.356 28.72H104.756L100.628 49.52Z" fill="white"/>
<path d="M62 72L47 72L62 87L77 72L62 72Z" fill="#A19C9B"/>
<circle cx="63" cy="106" r="14" fill="#A19C9B"/>
<circle cx="63" cy="106" r="14" fill="#C1C8B5"/>
<circle cx="63" cy="106" r="12" fill="#A19C9B"/>
<circle cx="63" cy="106" r="2" fill="#C1C8B5"/>
</svg>
