<svg width="131" height="120" viewBox="0 0 131 120" fill="none" xmlns="http://www.w3.org/2000/svg">
<circle cx="65.5" cy="14" r="14" fill="#A19C9B"/>
<circle cx="65.5" cy="14" r="14" fill="#C1C8B5"/>
<circle cx="65.5" cy="14" r="12" fill="#A19C9B"/>
<circle cx="65.5" cy="14" r="2" fill="#C1C8B5"/>
<rect width="131" height="72" transform="translate(0 48)" fill="#A19C9B"/>
<path d="M28.448 87.824V71.6H30.88V94H27.68L23.648 76.496V94H21.216V71.6H24.736L28.448 87.824ZM33.1178 91.152V87.984C33.1178 86.9387 33.3098 86.1493 33.6938 85.616C34.0778 85.0827 34.7391 84.656 35.6778 84.336L38.9418 83.216V80.336C38.9418 79.2907 38.4298 78.768 37.4058 78.768H37.2138C36.1898 78.768 35.6778 79.2907 35.6778 80.336V82.48H33.3098V80.432C33.3098 77.8293 34.6111 76.528 37.2138 76.528H37.4698C40.0724 76.528 41.3738 77.8293 41.3738 80.432V94H38.9418V92.912C38.0458 93.7653 37.0538 94.192 35.9658 94.192C34.0671 94.192 33.1178 93.1787 33.1178 91.152ZM36.7338 91.888C37.4164 91.888 38.1524 91.6213 38.9418 91.088V85.456L36.7338 86.224C36.2858 86.3947 35.9764 86.6187 35.8058 86.896C35.6351 87.152 35.5498 87.5253 35.5498 88.016V90.64C35.5498 91.472 35.9444 91.888 36.7338 91.888ZM43.5575 94V76.72H45.9895V78.544C46.3735 77.84 46.7682 77.3387 47.1735 77.04C47.6002 76.72 48.1335 76.56 48.7735 76.56V79.312C47.6215 79.3973 46.6935 79.76 45.9895 80.4V94H43.5575ZM55.3063 94H52.6183L49.4823 76.72H51.9463L53.9943 90.224L56.0423 76.72H58.4423L55.3063 94ZM68.3753 86.256H62.4873V90.384C62.4873 91.408 62.9993 91.92 64.0233 91.92H64.4713C65.4953 91.92 66.0073 91.408 66.0073 90.384V88.4H68.3753V90.288C68.3753 92.8907 67.0739 94.192 64.4713 94.192H63.9593C61.3566 94.192 60.0553 92.8907 60.0553 90.288V80.432C60.0553 77.8293 61.3566 76.528 63.9593 76.528H64.4713C67.0739 76.528 68.3753 77.8293 68.3753 80.432V86.256ZM62.4873 80.336V83.952H65.9433V80.336C65.9433 79.312 65.4313 78.8 64.4073 78.8H64.0233C62.9993 78.8 62.4873 79.312 62.4873 80.336ZM76.159 82.8V80.208C76.159 79.2267 75.6683 78.736 74.687 78.736H74.271C73.2897 78.736 72.799 79.2267 72.799 80.208V81.712C72.799 82.4373 73.0977 82.9813 73.695 83.344L76.575 85.136C77.3003 85.6053 77.8123 86.0853 78.111 86.576C78.431 87.0667 78.591 87.728 78.591 88.56V90.288C78.591 92.8907 77.2897 94.192 74.687 94.192H74.207C71.647 94.192 70.367 92.912 70.367 90.352V87.792H72.767V90.512C72.767 91.4933 73.2577 91.984 74.239 91.984H74.719C75.7003 91.984 76.191 91.4933 76.191 90.512V88.88C76.191 88.176 75.8923 87.632 75.295 87.248L72.415 85.456C71.6897 84.9867 71.167 84.5067 70.847 84.016C70.5483 83.5253 70.399 82.864 70.399 82.032V80.432C70.399 77.8293 71.7003 76.528 74.303 76.528H74.719C77.279 76.528 78.559 77.808 78.559 80.368V82.8H76.159ZM86.3465 82.8V80.208C86.3465 79.2267 85.8558 78.736 84.8745 78.736H84.4585C83.4772 78.736 82.9865 79.2267 82.9865 80.208V81.712C82.9865 82.4373 83.2852 82.9813 83.8825 83.344L86.7625 85.136C87.4878 85.6053 87.9998 86.0853 88.2985 86.576C88.6185 87.0667 88.7785 87.728 88.7785 88.56V90.288C88.7785 92.8907 87.4772 94.192 84.8745 94.192H84.3945C81.8345 94.192 80.5545 92.912 80.5545 90.352V87.792H82.9545V90.512C82.9545 91.4933 83.4452 91.984 84.4265 91.984H84.9065C85.8878 91.984 86.3785 91.4933 86.3785 90.512V88.88C86.3785 88.176 86.0798 87.632 85.4825 87.248L82.6025 85.456C81.8772 84.9867 81.3545 84.5067 81.0345 84.016C80.7358 83.5253 80.5865 82.864 80.5865 82.032V80.432C80.5865 77.8293 81.8878 76.528 84.4905 76.528H84.9065C87.4665 76.528 88.7465 77.808 88.7465 80.368V82.8H86.3465ZM99.094 86.256H93.206V90.384C93.206 91.408 93.718 91.92 94.742 91.92H95.19C96.214 91.92 96.726 91.408 96.726 90.384V88.4H99.094V90.288C99.094 92.8907 97.7927 94.192 95.19 94.192H94.678C92.0753 94.192 90.774 92.8907 90.774 90.288V80.432C90.774 77.8293 92.0753 76.528 94.678 76.528H95.19C97.7927 76.528 99.094 77.8293 99.094 80.432V86.256ZM93.206 80.336V83.952H96.662V80.336C96.662 79.312 96.15 78.8 95.126 78.8H94.742C93.718 78.8 93.206 79.312 93.206 80.336ZM101.214 94V76.72H103.646V77.84C104.563 76.9653 105.587 76.528 106.718 76.528C108.68 76.528 109.662 77.5627 109.662 79.632V94H107.23V80.144C107.23 79.2693 106.814 78.832 105.982 78.832C105.235 78.832 104.456 79.12 103.646 79.696V94H101.214Z" fill="white"/>
<path d="M65 56L80 56L65 41L50 56L65 56Z" fill="#A19C9B"/>
</svg>
