<svg width="227" height="120" viewBox="0 0 227 120" fill="none" xmlns="http://www.w3.org/2000/svg">
<circle cx="113.5" cy="14" r="14" fill="#A19C9B"/>
<circle cx="113.5" cy="14" r="14" fill="#C1C8B5"/>
<circle cx="113.5" cy="14" r="12" fill="#A19C9B"/>
<circle cx="113.5" cy="14" r="2" fill="#C1C8B5"/>
<rect width="227" height="72" transform="translate(0 48)" fill="#A19C9B"/>
<path d="M27.808 85.392H30.304V90.032C30.304 92.8053 28.9173 94.192 26.144 94.192H25.312C22.5387 94.192 21.152 92.8053 21.152 90.032V75.568C21.152 72.7947 22.5387 71.408 25.312 71.408H26.144C28.8747 71.408 30.24 72.7733 30.24 75.504V79.536H27.744V75.44C27.744 74.3093 27.1787 73.744 26.048 73.744H25.408C24.2773 73.744 23.712 74.3093 23.712 75.44V90.16C23.712 91.2907 24.2773 91.856 25.408 91.856H26.112C27.2427 91.856 27.808 91.2907 27.808 90.16V85.392ZM36.7845 97.52H34.3845L35.1845 93.776L31.8245 76.72H34.2885L36.4005 89.104L38.5125 76.72H40.9125L36.7845 97.52ZM48.101 83.184V80.336C48.101 79.312 47.589 78.8 46.565 78.8H46.117C45.093 78.8 44.581 79.312 44.581 80.336V90.384C44.581 91.408 45.093 91.92 46.117 91.92H46.597C47.621 91.92 48.133 91.408 48.133 90.384V86.96H50.533V90.288C50.533 92.8907 49.2317 94.192 46.629 94.192H46.053C43.4503 94.192 42.149 92.8907 42.149 90.288V80.432C42.149 77.8293 43.4503 76.528 46.053 76.528H46.661C49.221 76.528 50.501 77.808 50.501 80.368V83.184H48.101ZM52.7473 94V71.28H55.1793V94H52.7473ZM65.7503 86.256H59.8623V90.384C59.8623 91.408 60.3743 91.92 61.3983 91.92H61.8463C62.8703 91.92 63.3823 91.408 63.3823 90.384V88.4H65.7503V90.288C65.7503 92.8907 64.4489 94.192 61.8463 94.192H61.3343C58.7316 94.192 57.4303 92.8907 57.4303 90.288V80.432C57.4303 77.8293 58.7316 76.528 61.3343 76.528H61.8463C64.4489 76.528 65.7503 77.8293 65.7503 80.432V86.256ZM59.8623 80.336V83.952H63.3183V80.336C63.3183 79.312 62.8063 78.8 61.7823 78.8H61.3983C60.3743 78.8 59.8623 79.312 59.8623 80.336ZM71.7138 97.52V76.72H74.1458V77.84C74.9778 76.9653 75.9698 76.528 77.1218 76.528C78.1458 76.528 78.9138 76.8373 79.4258 77.456C79.9591 78.0747 80.2258 78.9067 80.2258 79.952V90.768C80.2258 91.8133 79.9591 92.6453 79.4258 93.264C78.9138 93.8827 78.1458 94.192 77.1218 94.192C75.9698 94.192 74.9778 93.776 74.1458 92.944V97.52H71.7138ZM74.1458 79.728V90.992C74.8498 91.5893 75.5964 91.888 76.3858 91.888C77.3244 91.888 77.7938 91.4187 77.7938 90.48V80.24C77.7938 79.3013 77.3244 78.832 76.3858 78.832C75.5964 78.832 74.8498 79.1307 74.1458 79.728ZM82.3053 91.152V87.984C82.3053 86.9387 82.4973 86.1493 82.8813 85.616C83.2653 85.0827 83.9266 84.656 84.8653 84.336L88.1293 83.216V80.336C88.1293 79.2907 87.6173 78.768 86.5933 78.768H86.4013C85.3773 78.768 84.8653 79.2907 84.8653 80.336V82.48H82.4973V80.432C82.4973 77.8293 83.7986 76.528 86.4013 76.528H86.6573C89.2599 76.528 90.5613 77.8293 90.5613 80.432V94H88.1293V92.912C87.2333 93.7653 86.2413 94.192 85.1533 94.192C83.2546 94.192 82.3053 93.1787 82.3053 91.152ZM85.9213 91.888C86.6039 91.888 87.3399 91.6213 88.1293 91.088V85.456L85.9213 86.224C85.4733 86.3947 85.1639 86.6187 84.9933 86.896C84.8226 87.152 84.7373 87.5253 84.7373 88.016V90.64C84.7373 91.472 85.1319 91.888 85.9213 91.888ZM95.817 78.96V94H93.385V78.96H92.233V76.72H93.385V73.84H95.817V76.72H97.577V78.96H95.817ZM99.1513 94V71.28H101.583V77.84C102.501 76.9653 103.525 76.528 104.655 76.528C106.618 76.528 107.599 77.5627 107.599 79.632V94H105.167V80.144C105.167 79.2693 104.751 78.832 103.919 78.832C103.173 78.832 102.394 79.12 101.583 79.696V94H99.1513ZM121.907 79.696V94H119.475V80.08C119.475 79.248 119.091 78.832 118.323 78.832C117.641 78.832 116.894 79.12 116.083 79.696V94H113.651V76.72H116.083V77.84C117.001 76.9653 117.993 76.528 119.059 76.528C120.275 76.528 121.118 76.9973 121.587 77.936C122.697 76.9973 123.795 76.528 124.883 76.528C125.822 76.528 126.526 76.7947 126.995 77.328C127.486 77.8613 127.731 78.608 127.731 79.568V94H125.299V80.08C125.299 79.248 124.915 78.832 124.147 78.832C123.465 78.832 122.718 79.12 121.907 79.696ZM138.157 86.256H132.269V90.384C132.269 91.408 132.781 91.92 133.805 91.92H134.253C135.277 91.92 135.789 91.408 135.789 90.384V88.4H138.157V90.288C138.157 92.8907 136.855 94.192 134.253 94.192H133.741C131.138 94.192 129.837 92.8907 129.837 90.288V80.432C129.837 77.8293 131.138 76.528 133.741 76.528H134.253C136.855 76.528 138.157 77.8293 138.157 80.432V86.256ZM132.269 80.336V83.952H135.725V80.336C135.725 79.312 135.213 78.8 134.189 78.8H133.805C132.781 78.8 132.269 79.312 132.269 80.336ZM144.404 78.96H139.892V76.72H146.9V78.96L142.164 91.76H146.9V94H139.732V91.76L144.404 78.96ZM148.589 94V71.28H151.021V77.84C151.938 76.9653 152.962 76.528 154.093 76.528C156.055 76.528 157.037 77.5627 157.037 79.632V94H154.605V80.144C154.605 79.2693 154.189 78.832 153.357 78.832C152.61 78.832 151.831 79.12 151.021 79.696V94H148.589ZM159.149 91.152V87.984C159.149 86.9387 159.341 86.1493 159.725 85.616C160.109 85.0827 160.77 84.656 161.709 84.336L164.973 83.216V80.336C164.973 79.2907 164.461 78.768 163.437 78.768H163.245C162.221 78.768 161.709 79.2907 161.709 80.336V82.48H159.341V80.432C159.341 77.8293 160.642 76.528 163.245 76.528H163.501C166.104 76.528 167.405 77.8293 167.405 80.432V94H164.973V92.912C164.077 93.7653 163.085 94.192 161.997 94.192C160.098 94.192 159.149 93.1787 159.149 91.152ZM162.765 91.888C163.448 91.888 164.184 91.6213 164.973 91.088V85.456L162.765 86.224C162.317 86.3947 162.008 86.6187 161.837 86.896C161.666 87.152 161.581 87.5253 161.581 88.016V90.64C161.581 91.472 161.976 91.888 162.765 91.888ZM169.589 97.52V76.72H172.021V77.84C172.853 76.9653 173.845 76.528 174.997 76.528C176.021 76.528 176.789 76.8373 177.301 77.456C177.834 78.0747 178.101 78.9067 178.101 79.952V90.768C178.101 91.8133 177.834 92.6453 177.301 93.264C176.789 93.8827 176.021 94.192 174.997 94.192C173.845 94.192 172.853 93.776 172.021 92.944V97.52H169.589ZM172.021 79.728V90.992C172.725 91.5893 173.471 91.888 174.261 91.888C175.199 91.888 175.669 91.4187 175.669 90.48V80.24C175.669 79.3013 175.199 78.832 174.261 78.832C173.471 78.832 172.725 79.1307 172.021 79.728ZM180.18 91.152V87.984C180.18 86.9387 180.372 86.1493 180.756 85.616C181.14 85.0827 181.802 84.656 182.74 84.336L186.004 83.216V80.336C186.004 79.2907 185.492 78.768 184.468 78.768H184.276C183.252 78.768 182.74 79.2907 182.74 80.336V82.48H180.372V80.432C180.372 77.8293 181.674 76.528 184.276 76.528H184.532C187.135 76.528 188.436 77.8293 188.436 80.432V94H186.004V92.912C185.108 93.7653 184.116 94.192 183.028 94.192C181.13 94.192 180.18 93.1787 180.18 91.152ZM183.796 91.888C184.479 91.888 185.215 91.6213 186.004 91.088V85.456L183.796 86.224C183.348 86.3947 183.039 86.6187 182.868 86.896C182.698 87.152 182.612 87.5253 182.612 88.016V90.64C182.612 91.472 183.007 91.888 183.796 91.888ZM190.62 94V76.72H193.052V78.544C193.436 77.84 193.831 77.3387 194.236 77.04C194.663 76.72 195.196 76.56 195.836 76.56V79.312C194.684 79.3973 193.756 79.76 193.052 80.4V94H190.62ZM203.609 76.72H206.201L202.169 85.168L206.073 94H203.417L199.833 85.424V94H197.401V71.28H199.833V85.104L203.609 76.72Z" fill="white"/>
<path d="M113 56L128 56L113 41L98 56L113 56Z" fill="#A19C9B"/>
</svg>
