<svg width="77" height="120" viewBox="0 0 77 120" fill="none" xmlns="http://www.w3.org/2000/svg">
<rect width="77" height="72" fill="#A19C9B"/>
<path d="M23.776 37.584V46H21.216V23.6H25.632C28.4053 23.6 29.792 24.9867 29.792 27.76V33.424C29.792 36.1973 28.4053 37.584 25.632 37.584H23.776ZM27.232 27.632C27.232 26.5013 26.6667 25.936 25.536 25.936H23.776V35.248H25.536C26.6667 35.248 27.232 34.6827 27.232 33.552V27.632ZM36.2243 30.8H35.6483C34.6243 30.8 34.1123 31.312 34.1123 32.336V42.384C34.1123 43.408 34.6243 43.92 35.6483 43.92H36.2243C37.2483 43.92 37.7603 43.408 37.7603 42.384V32.336C37.7603 31.312 37.2483 30.8 36.2243 30.8ZM36.2883 46.192H35.5843C32.9816 46.192 31.6803 44.8907 31.6803 42.288V32.432C31.6803 29.8293 32.9816 28.528 35.5843 28.528H36.2883C38.8909 28.528 40.1923 29.8293 40.1923 32.432V42.288C40.1923 44.8907 38.8909 46.192 36.2883 46.192ZM46.7868 30.8H46.2108C45.1868 30.8 44.6748 31.312 44.6748 32.336V42.384C44.6748 43.408 45.1868 43.92 46.2108 43.92H46.7868C47.8108 43.92 48.3228 43.408 48.3228 42.384V32.336C48.3228 31.312 47.8108 30.8 46.7868 30.8ZM46.8508 46.192H46.1468C43.5441 46.192 42.2428 44.8907 42.2428 42.288V32.432C42.2428 29.8293 43.5441 28.528 46.1468 28.528H46.8508C49.4534 28.528 50.7548 29.8293 50.7548 32.432V42.288C50.7548 44.8907 49.4534 46.192 46.8508 46.192ZM52.9973 46V23.28H55.4293V46H52.9973Z" fill="white"/>
<path d="M38 72L23 72L38 87L53 72L38 72Z" fill="#A19C9B"/>
<circle cx="38.5" cy="106" r="14" fill="#A19C9B"/>
<circle cx="38.5" cy="106" r="14" fill="#C1C8B5"/>
<circle cx="38.5" cy="106" r="12" fill="#A19C9B"/>
<circle cx="38.5" cy="106" r="2" fill="#C1C8B5"/>
</svg>
