<svg width="84" height="120" viewBox="0 0 84 120" fill="none" xmlns="http://www.w3.org/2000/svg">
<circle cx="42" cy="14" r="14" fill="#A19C9B"/>
<circle cx="42" cy="14" r="14" fill="#C1C8B5"/>
<circle cx="42" cy="14" r="12" fill="#A19C9B"/>
<circle cx="42" cy="14" r="2" fill="#C1C8B5"/>
<rect width="84" height="72" transform="translate(0 48)" fill="#A19C9B"/>
<path d="M27.936 82.608C28.7467 83.2053 29.3013 83.8133 29.6 84.432C29.92 85.0293 30.08 85.808 30.08 86.768V90.032C30.08 92.8053 28.6933 94.192 25.92 94.192H25.216C22.4853 94.192 21.12 92.8267 21.12 90.096V85.392H23.616V90.192C23.616 91.3227 24.1813 91.888 25.312 91.888H25.824C26.9547 91.888 27.52 91.3227 27.52 90.192V86.832C27.52 86.2987 27.4347 85.8827 27.264 85.584C27.0933 85.2853 26.8053 84.9867 26.4 84.688L23.264 82.416C22.4533 81.84 21.888 81.2427 21.568 80.624C21.2693 79.984 21.12 79.1947 21.12 78.256V75.568C21.12 72.7947 22.5067 71.408 25.28 71.408H25.92C28.6507 71.408 30.016 72.7733 30.016 75.504V79.536H27.52V75.408C27.52 74.2773 26.9547 73.712 25.824 73.712H25.376C24.2453 73.712 23.68 74.2773 23.68 75.408V78.224C23.68 78.7573 23.7653 79.1733 23.936 79.472C24.128 79.7707 24.4267 80.0693 24.832 80.368L27.936 82.608ZM32.245 94V71.28H34.677V77.84C35.5943 76.9653 36.6183 76.528 37.749 76.528C39.7117 76.528 40.693 77.5627 40.693 79.632V94H38.261V80.144C38.261 79.2693 37.845 78.832 37.013 78.832C36.2663 78.832 35.4877 79.12 34.677 79.696V94H32.245ZM47.3493 78.8H46.7733C45.7493 78.8 45.2373 79.312 45.2373 80.336V90.384C45.2373 91.408 45.7493 91.92 46.7733 91.92H47.3493C48.3733 91.92 48.8853 91.408 48.8853 90.384V80.336C48.8853 79.312 48.3733 78.8 47.3493 78.8ZM47.4133 94.192H46.7093C44.1066 94.192 42.8053 92.8907 42.8053 90.288V80.432C42.8053 77.8293 44.1066 76.528 46.7093 76.528H47.4133C50.0159 76.528 51.3173 77.8293 51.3173 80.432V90.288C51.3173 92.8907 50.0159 94.192 47.4133 94.192ZM53.4638 97.52V76.72H55.8958V77.84C56.7278 76.9653 57.7198 76.528 58.8718 76.528C59.8958 76.528 60.6638 76.8373 61.1758 77.456C61.7091 78.0747 61.9758 78.9067 61.9758 79.952V90.768C61.9758 91.8133 61.7091 92.6453 61.1758 93.264C60.6638 93.8827 59.8958 94.192 58.8718 94.192C57.7198 94.192 56.7278 93.776 55.8958 92.944V97.52H53.4638ZM55.8958 79.728V90.992C56.5998 91.5893 57.3464 91.888 58.1358 91.888C59.0744 91.888 59.5438 91.4187 59.5438 90.48V80.24C59.5438 79.3013 59.0744 78.832 58.1358 78.832C57.3464 78.832 56.5998 79.1307 55.8958 79.728Z" fill="white"/>
<path d="M41 56L56 56L41 41L26 56L41 56Z" fill="#A19C9B"/>
</svg>
