<svg width="71" height="120" viewBox="0 0 71 120" fill="none" xmlns="http://www.w3.org/2000/svg">
<rect width="71" height="72" fill="#A19C9B"/>
<path d="M25.888 25.936H20.864V23.6H28.448V25.936L23.264 43.664H28.448V46H20.704V43.664L25.888 25.936ZM34.693 30.8H34.117C33.093 30.8 32.581 31.312 32.581 32.336V42.384C32.581 43.408 33.093 43.92 34.117 43.92H34.693C35.717 43.92 36.229 43.408 36.229 42.384V32.336C36.229 31.312 35.717 30.8 34.693 30.8ZM34.757 46.192H34.053C31.4503 46.192 30.149 44.8907 30.149 42.288V32.432C30.149 29.8293 31.4503 28.528 34.053 28.528H34.757C37.3597 28.528 38.661 29.8293 38.661 32.432V42.288C38.661 44.8907 37.3597 46.192 34.757 46.192ZM45.2555 30.8H44.6795C43.6555 30.8 43.1435 31.312 43.1435 32.336V42.384C43.1435 43.408 43.6555 43.92 44.6795 43.92H45.2555C46.2795 43.92 46.7915 43.408 46.7915 42.384V32.336C46.7915 31.312 46.2795 30.8 45.2555 30.8ZM45.3195 46.192H44.6155C42.0128 46.192 40.7115 44.8907 40.7115 42.288V32.432C40.7115 29.8293 42.0128 28.528 44.6155 28.528H45.3195C47.9222 28.528 49.2235 29.8293 49.2235 32.432V42.288C49.2235 44.8907 47.9222 46.192 45.3195 46.192Z" fill="white"/>
<path d="M35 72L20 72L35 87L50 72L35 72Z" fill="#A19C9B"/>
<circle cx="35.5" cy="106" r="14" fill="#A19C9B"/>
<circle cx="35.5" cy="106" r="14" fill="#C1C8B5"/>
<circle cx="35.5" cy="106" r="12" fill="#A19C9B"/>
<circle cx="35.5" cy="106" r="2" fill="#C1C8B5"/>
</svg>
